<svg id="visual" viewBox="0 0 1920 961" width="1920" height="961" xmlns="http://www.w3.org/2000/svg" xmlns:xlink="http://www.w3.org/1999/xlink" version="1.1"><rect x="0" y="0" width="1920" height="961" fill="#3b465c"></rect><path d="M0 720L45.7 693C91.3 666 182.7 612 274.2 591.5C365.7 571 457.3 584 548.8 619.8C640.3 655.7 731.7 714.3 823 706.2C914.3 698 1005.7 623 1097 606C1188.3 589 1279.7 630 1371.2 652.3C1462.7 674.7 1554.3 678.3 1645.8 661.5C1737.3 644.7 1828.7 607.3 1874.3 588.7L1920 570L1920 962L1874.3 962C1828.7 962 1737.3 962 1645.8 962C1554.3 962 1462.7 962 1371.2 962C1279.7 962 1188.3 962 1097 962C1005.7 962 914.3 962 823 962C731.7 962 640.3 962 548.8 962C457.3 962 365.7 962 274.2 962C182.7 962 91.3 962 45.7 962L0 962Z" fill="#5a92e7" stroke-linecap="round" stroke-linejoin="miter"></path></svg>